<svg id="图层_1" data-name="图层 1" xmlns="http://www.w3.org/2000/svg" viewBox="0 0 97.73 72.84"><defs><style>.cls-1{fill-opacity:0;stroke:#000;stroke-miterlimit:1.28;stroke-width:0.96px;}.cls-2{fill-rule:evenodd;}</style></defs><title>svg</title><path class="cls-1" d="M59.86,7.84a35.94,35.94,0,1,1,0,64.88" transform="translate(-14.01 -3.85)"/><path class="cls-2" d="M28.23,28l3.67-.48.44,4.3,7.15-7.3-.76-.34-1,1.76L33,23.32l6.59-12.06,5,2.57-.95,1.71,4.63.15.76-.81L52.42,18l-5.06,5.21L58,25.71,56.14,32l-12-5.38-8.83,9.06-2.81-2.76,1.05,9.92L29.8,43ZM14,31.72,24,14.88,29.56,18l-4.43,7.54L27.7,49.61,24,49.85,22,31,19.55,35.1ZM38.77,50.37,51.6,41.74l2.63,3.91L41.35,54.34Zm.77-7.58L49,35.88l2.1,3.19-9.44,6.82Zm3.86-5.67-2.72-1.06,4.25-6.63,4.2,1.72ZM40.21,21.55,42,22l2.71-2.77-3.19-.1Zm61.16,10.17v3.72l-4.77.14.15,3.77h4V43H96.93L97,45.6l6.44-.52h0l.25,3.86-6.55.15.24,5.25-5.29.23-.24-5.39-7.06.15-.38-2.72a5.68,5.68,0,0,1,1.07-.12l2.29-.17c.9-.06,1.93-.14,3.08-.24h0l.86,0L91.6,43H86.87V39.35h4.58l-.14-3.57-5.49.14V32.58l-2.39,2.33L80.8,32.34,86.3,27,84,26.38l-.81,1.38L79,25.42l8.16-15,4.49,2.62-1.16,2,9,1.62-.52,3.72-.66-.1L94.83,23.7a8,8,0,0,1,.82.05h0q4.53.48,10.06,1h0l-1,6.68L90.49,28l-4.33,4.3,5-.15-.05-1.43,5.3-.23,0,1.47ZM62,29.24h5.2V39.6l1.67-.78.52-18.12h5.21l-.38,15.74,2.38-1L76,29l3.34-.19,1.19,12.11-3.39.25L76.9,39l-9.74,4.24v2H62Zm26.39-6.16h0l1.67.2h0l3.81-3.77-5.39-1L86,22.9C86.63,23,87.43,23,88.35,23.08Z" transform="translate(-14.01 -3.85)"/><path class="cls-2" d="M25.42,61.46l.85-.45a8.26,8.26,0,0,1,1,1.06h0l-.82.4a3.47,3.47,0,0,0-1-1Zm4.91,3.09H26.64v1h3.69Zm-2.27-3.86h0a4.39,4.39,0,0,1,1.06.07h0l0,.05h0a1.15,1.15,0,0,0-.2.53h0v1.18h.85a5.32,5.32,0,0,0,.85-1.59h0a2.24,2.24,0,0,1,1,.48h0l-.08.08h0a1.27,1.27,0,0,0-.29.21h0a10.4,10.4,0,0,0-.69.82h1.38a6.18,6.18,0,0,0,.94-.05h0l0,.73h0v.33a6.08,6.08,0,0,0,0,.94H32a8,8,0,0,0,0-.94h0V63.2H25v.41c0,.16,0,.39,0,.69h0v.25h-.89a7.46,7.46,0,0,0,.08-.94h0V63.2a2.41,2.41,0,0,0,0-.77h0a4.41,4.41,0,0,0,.86.09H28.1V61.34A3,3,0,0,0,28.06,60.69Zm3.13,3.21h0a2.73,2.73,0,0,0-.08.69h0v.93a2.13,2.13,0,0,0,.08.69h0a6.36,6.36,0,0,0-.93,0H28.88V67h2.19c.38,0,.66,0,.85,0h0a5.11,5.11,0,0,0,0,.85h0V69c0,.46-.55.72-1.58.77h0a1.63,1.63,0,0,0-.37-.89h0c.78.08,1.17,0,1.14-.21h0v-1H28.88V69.1a5.28,5.28,0,0,0,.08,1H28a6.21,6.21,0,0,0,.08-1h0V67.63H26V68.9a7.09,7.09,0,0,0,.05.77h-.9v-.24h0c0-.25,0-.42,0-.53h0V67.6a1.73,1.73,0,0,0,0-.65h0A7.07,7.07,0,0,0,26,67H28.1v-.81H26.64a6.93,6.93,0,0,0-.82,0h0a3.19,3.19,0,0,0,.05-.65h0v-1a1.93,1.93,0,0,0-.05-.69h0c.22,0,.49,0,.82,0h3.69A3.33,3.33,0,0,0,31.19,63.9Zm7.4-3,1.1-.2L40,62h1.83a12.64,12.64,0,0,0,1.5-.05h0v.9h0a12.89,12.89,0,0,0-1.46-.05H36.28v3.1A7.77,7.77,0,0,1,35,69.75h0a2.45,2.45,0,0,0-.94-.41h0a5.91,5.91,0,0,0,1.42-4h0V63.12c0-.62,0-1,0-1.18h0c.38,0,.79.05,1.22.05h2.48c-.22-.52-.38-.87-.48-1.06h0l0,0Zm.17,2.81.89-.17a25.16,25.16,0,0,1,.73,3.29h0l-1,.16a16.36,16.36,0,0,0-.65-3.28Zm3,0h0l.58.2h0c.45.13.66.22.6.28h0s0,.08-.12.17h0a2.58,2.58,0,0,0-.53.8h0c-.19.5-.65,1.54-1.38,3.14h0c.06-.11,0,0-.12.28h1.38a7.2,7.2,0,0,0,1.14,0h0v.81a9.1,9.1,0,0,0-1.1,0H37.78c-.92,0-1.45,0-1.59,0h0v-.81a12.06,12.06,0,0,0,1.42,0h2.33A23.39,23.39,0,0,0,41.8,63.7Zm-5.11.8.8-.24a17.12,17.12,0,0,1,1.27,3.18h0l-.94.28a13.09,13.09,0,0,0-1.13-3.22Zm9.55-3L47.1,61a9,9,0,0,1,1,1.06h0l-.82.4a3.47,3.47,0,0,0-1-1Zm4.92,3.09h-3.7v1h3.7Zm-2.28-3.86h0a4.39,4.39,0,0,1,1.06.07h0l0,.05h0a1.15,1.15,0,0,0-.2.53h0v1.18h.85a5.32,5.32,0,0,0,.85-1.59h0a2.24,2.24,0,0,1,1,.48h0l-.08.08h0a1.27,1.27,0,0,0-.29.21h0a10.4,10.4,0,0,0-.69.82H52.7a6.18,6.18,0,0,0,.94-.05h0l0,.73h0v.33a6.08,6.08,0,0,0,0,.94h-.85a8,8,0,0,0,0-.94h0V63.2h-7v.41c0,.16,0,.39,0,.69h0v.25H45a7.46,7.46,0,0,0,.08-.94h0V63.2a2.41,2.41,0,0,0-.05-.77h0a4.41,4.41,0,0,0,.86.09h3.05V61.34A3,3,0,0,0,48.88,60.69ZM52,63.9h0a2.73,2.73,0,0,0-.08.69h0v.93a2.13,2.13,0,0,0,.08.69h0a6.36,6.36,0,0,0-.93,0H49.7V67h2.19c.38,0,.66,0,.85,0h0a5.11,5.11,0,0,0,0,.85h0V69c0,.46-.55.72-1.58.77h0a1.63,1.63,0,0,0-.37-.89h0c.78.08,1.17,0,1.14-.21h0v-1H49.7V69.1a5.28,5.28,0,0,0,.08,1h-.94a6.21,6.21,0,0,0,.08-1h0V67.63H46.84V68.9a7.09,7.09,0,0,0,0,.77H46v-.24h0c0-.25,0-.42,0-.53h0V67.6A1.73,1.73,0,0,0,46,67h0a7.07,7.07,0,0,0,.82,0h2.11v-.81H47.46a6.93,6.93,0,0,0-.82,0h0a3.19,3.19,0,0,0,0-.65h0v-1a1.93,1.93,0,0,0,0-.69h0c.22,0,.49,0,.82,0h3.7A3.27,3.27,0,0,0,52,63.9Zm5-3.21h0c.63,0,.94,0,.94.12h0A.28.28,0,0,1,58,61h0a.92.92,0,0,0-.08.38h0v.36h.36a11.14,11.14,0,0,0,1.38-.09h0v.74a12.58,12.58,0,0,0-1.33,0h-.41v.57h.29a7.85,7.85,0,0,0,1,0h0v.69a7.77,7.77,0,0,0-1.06,0h-.28v.61h.53c.24,0,.51,0,.81,0h.44v.69h-.44c-.35,0-.64,0-.86,0h-2l-1.27,0h0v-.69c.3,0,.73,0,1.3,0h.74v-.61h-.33c-.44,0-.83,0-1.18,0h0v-.69H56a5.25,5.25,0,0,0,.65,0h.41v-.57h-.53c-.55,0-1,0-1.3,0h0v-.69h.53c.32,0,.56,0,.73,0h.57v-.36A6.29,6.29,0,0,0,57.05,60.69Zm3.79,0h0c.73.19,1.08.33,1,.41h0s0,.06-.08.08h0a2.5,2.5,0,0,0-.53.69h1l.65,0h.57c.06,0,.07,0,0,.09h0c-.08.13-.2.35-.36.65h0c-.25.43-.46.78-.65,1h.56c.43,0,.75,0,.94,0h0a11.28,11.28,0,0,0,0,1.14h0v.53c.13,0,.34,0,.61,0h0v.74a5,5,0,0,0-.61,0h0v.73c0,.16,0,.62,0,1.38H63.2a2.69,2.69,0,0,0,0-.4h-1V69c.22.68-.34,1-1.67,1.1h0a3,3,0,0,0-.4-1h0c1,.19,1.38.08,1.3-.33h0V67.56H61a8.31,8.31,0,0,0-1.1,0h0V67h1.51v-1.1h-.53a10.45,10.45,0,0,0-1.18,0h0v-.74a4.81,4.81,0,0,0,1.18.09h.53V64.18H61.2a6.7,6.7,0,0,0-1,0h0v-.57l-.33.49-.53-.7A7.54,7.54,0,0,0,60.84,60.64Zm1.5,1.79H61a5.89,5.89,0,0,1-.74,1.1h0l.53,0h.94a6.5,6.5,0,0,0,.49-.9h0l.12-.24Zm.89,1.75h-1v1.06h1ZM58.4,65.85H56.48v.57H58.4Zm4.83,0h-1V67h1ZM58.4,67H56.48v.68H58.4Zm-2.77-1.8h0a5.83,5.83,0,0,0,1,.09h1.71a4.76,4.76,0,0,0,.94-.09h0a4.26,4.26,0,0,0-.08.74h0V69c.19.62-.28,1-1.42,1.06h0a1.59,1.59,0,0,0-.37-.94h.13c.67.08,1,0,.89-.36h0v-.58H56.48v1a8.24,8.24,0,0,0,.05.85h-.9c0-.32,0-.62,0-.89h0V65.89A6.83,6.83,0,0,0,55.63,65.15Zm11.43-3.69.86-.45a9,9,0,0,1,1,1.06h0l-.82.4a3.47,3.47,0,0,0-1-1ZM72,64.55h-3.7v1H72ZM69.7,60.69h0a4.39,4.39,0,0,1,1.06.07h0l0,.05h0a1.15,1.15,0,0,0-.2.53h0v1.18h.85a5.32,5.32,0,0,0,.85-1.59h0a2.24,2.24,0,0,1,1,.48h0l-.08.08h0a1.54,1.54,0,0,0-.29.21h0a10.4,10.4,0,0,0-.69.82h1.38a6.18,6.18,0,0,0,.94-.05h0l0,.73h0v.33a6.08,6.08,0,0,0,0,.94h-.85a8,8,0,0,0,0-.94h0V63.2h-7v.41c0,.16,0,.39,0,.69h0v.25H65.8a7.46,7.46,0,0,0,.08-.94h0V63.2a2.41,2.41,0,0,0,0-.77h0a4.41,4.41,0,0,0,.86.09h3V61.34A3,3,0,0,0,69.7,60.69Zm3.13,3.21h0a2.73,2.73,0,0,0-.08.69h0v.93a2.13,2.13,0,0,0,.08.69h0a6.36,6.36,0,0,0-.93,0H70.52V67h2.19c.38,0,.66,0,.85,0h0a5.11,5.11,0,0,0,0,.85h0V69c0,.46-.55.72-1.58.77h0a1.63,1.63,0,0,0-.37-.89h0c.78.08,1.17,0,1.14-.21h0v-1H70.52V69.1a5.28,5.28,0,0,0,.08,1h-.94a6.21,6.21,0,0,0,.08-1h0V67.63H67.66V68.9a7.09,7.09,0,0,0,0,.77h-.9v-.24h0c0-.25,0-.42,0-.53h0V67.6a1.73,1.73,0,0,0,0-.65h0a7.07,7.07,0,0,0,.82,0h2.11v-.81H68.28a6.93,6.93,0,0,0-.82,0h0a3.19,3.19,0,0,0,.05-.65h0v-1a1.93,1.93,0,0,0-.05-.69h0c.22,0,.49,0,.82,0H72A3.25,3.25,0,0,0,72.83,63.9Zm8.42-3.26h0a3.59,3.59,0,0,1,1.06.08h0a.14.14,0,0,1,0,.09h0a1.73,1.73,0,0,0-.16.85h1.34a5.67,5.67,0,0,0,1.26-.12h.13v.89H84.7a8.55,8.55,0,0,0-1.21-.08H82.1V63h1.18a7,7,0,0,0,1-.08h.2v.81h-.08a7.44,7.44,0,0,0-1.14-.08H82.1v.65h1.27A10.09,10.09,0,0,0,85,64.18h.16v.9h-.08A8.16,8.16,0,0,0,83.4,65H79.78a6.22,6.22,0,0,0-1.38.13h-.07v-.9h.07a7,7,0,0,0,1.38.12h1.51v-.65h-.65a9.86,9.86,0,0,0-1.42.08h-.09v-.81h.12a11.59,11.59,0,0,0,1.39.08h.65v-.65H80a7.29,7.29,0,0,0-1.27.08h0v-.85h.09a7.91,7.91,0,0,0,1.18.08h1.34A3.9,3.9,0,0,0,81.25,60.64Zm-4.88,1.14.57-.69a14.58,14.58,0,0,1,1.59,1.31h0l-.66.65a9.22,9.22,0,0,0-1.5-1.27Zm-.53,2.44.45-.69A8.16,8.16,0,0,1,78,64.59h0l-.53.73a9.27,9.27,0,0,0-1.58-1.1Zm3.5,1.18h0a6.25,6.25,0,0,0,1.26.08h2.31A7.94,7.94,0,0,0,84,65.4h.16v.21h0a8.7,8.7,0,0,0,0,.89h0v2.44c.19.73-.3,1.12-1.47,1.18h0a2.33,2.33,0,0,0-.44-.94h0c.87.06,1.23-.06,1.09-.37h0v-.28H80.15v.28c0,.33,0,.66,0,1h0V70h-.94v-.08h0a3.21,3.21,0,0,0,.13-1.06h0V66.42c0-.27,0-.56,0-.86h0Zm-2.16.53h0l.74.57a22.8,22.8,0,0,0-.86,3h0c0,.25-.09.35-.12.32h0c-.08.06-.4-.15-.94-.6h0A10.35,10.35,0,0,0,77.18,65.93Zm6.14.16H80.15v.65h3.17Zm0,1.18H80.15V68h3.17Zm7.16-6.55h0c.76.16,1.12.27,1.1.33h0l-.09.12h0a3.49,3.49,0,0,0-.56.65h1.91A8.41,8.41,0,0,0,94,61.74h0c-.09.14-.45.61-1.1,1.43h0l-.33.36h0a14.26,14.26,0,0,0,2.08-.12h0a12.55,12.55,0,0,0-.08,1.74h0a6.24,6.24,0,0,0,1-.07h0v.85a5.13,5.13,0,0,0-1.06-.08h0a15.59,15.59,0,0,0,.13,2.27h-1a2.67,2.67,0,0,0,.08-.65H92v1.67c.16.63-.38.93-1.63.9h0A1.85,1.85,0,0,0,90,69.1h0c1,.11,1.36,0,1.22-.41h0V67.47H89.83c-.33,0-.66,0-1,0h0v-.73a2.82,2.82,0,0,0,1,.08h1.42v-1H89.79a6.15,6.15,0,0,0-1.18,0h0v-.77a3.74,3.74,0,0,0,1.14.08h1.46v-1a11.3,11.3,0,0,0-1.67.08h0v-.44c-.24.29-.47.55-.68.77h0a2,2,0,0,0-.82-.45h0A7.55,7.55,0,0,0,90.48,60.72Zm-4,1.3.8-.44a13.08,13.08,0,0,1,1.15,1.71h0l-.89.44A6.74,6.74,0,0,0,86.5,62Zm5.08,1.51.93-1.06h-2l-.73,1a6.44,6.44,0,0,0,1.75.09Zm2.15,1.67v-1H92v1Zm-6.17-.37h0a1.45,1.45,0,0,0,.8.57h0a31.72,31.72,0,0,0-1.06,3.5h0a3.73,3.73,0,0,0-.8-.61h0l-.17-.13h0A9.33,9.33,0,0,0,87.56,64.83Zm6.17,1H92v1h1.74Z" transform="translate(-14.01 -3.85)"/></svg>